<svg xmlns="http://www.w3.org/2000/svg" viewBox="0 0 64 64"><rect width="64" height="64" fill="#faf7f2"/><g transform="translate(7.66 44.63) scale(0.03516 -0.03516)" fill="#2d5a45"><path transform="translate(0.0 0)" d="M0.7 0V57.0Q29.3 57.0 46.0 73.0Q62.7 89.0 73.8 115.7Q85.0 142.3 97.0 174.7L295.7 718.3H350.3L566.7 165.3Q573.3 148.3 583.3 117.0Q593.3 85.7 594.0 62.7Q611.0 64.3 627.0 65.0Q643.0 65.7 655.3 66.0V0H399.7V55.0Q431.0 55.3 442.0 68.3Q453.0 81.3 451.3 102.0Q449.7 122.7 440.7 145.3L415.7 213.3L184.3 208.7L162.0 141.7Q156.3 125.0 148.2 103.3Q140.0 81.7 132.3 64.7Q149.7 66.3 171.2 67.0Q192.7 67.7 205.7 68.0V0ZM206.0 273.0H394.3L340.0 420.0Q327.7 454.3 317.2 488.8Q306.7 523.3 299.7 552.3H298.3Q292.3 531.7 283.5 499.7Q274.7 467.7 259.7 426.7Z"/><path transform="translate(684.0 0)" d="M51.7 0V55.0Q79.7 56.3 94.7 64.8Q109.7 73.3 115.8 94.5Q122.0 115.7 122.0 154.0V553.3Q122.0 578.0 123.3 600.8Q124.7 623.7 125.7 637.3Q109 636.3 87.0 635.7Q65.0 635.0 51.7 634.0V700H318.0V645.0Q291.0 644.0 275.5 635.3Q260.0 626.7 253.8 606.0Q247.7 585.3 247.7 546.0V390.0H320.7L413.7 543.0Q429.3 569.7 448.3 597.7Q467.3 625.7 482.7 638.3Q467 637.3 449.8 636.7Q432.7 636.0 420.3 635.0V700H655.3V645.0Q626.7 643.3 598.7 635.0Q570.7 626.7 542.7 603.5Q514.7 580.3 484.7 532L388.0 377.3Q411.0 363.0 427.3 345.8Q443.7 328.7 457.7 309.7L563.7 163.3Q589.7 128.0 612.2 103.8Q634.7 79.7 656.5 67.7Q678.3 55.7 700.0 55.0V0H556.7Q548.0 0.7 530.5 16.7Q513 32.7 493.3 56.2Q473.7 79.7 457.7 100.7L351.7 250.7Q336.7 271.7 320.0 292.5Q303.3 313.3 288.0 323.7L247.7 323.3V149.0Q247.7 122.0 246.8 98.8Q246.0 75.7 244.0 62.7Q260.7 64.3 283.0 65.0Q305.3 65.7 318.0 66.0V0Z"/></g></svg>
